<?xml version="1.0" encoding="UTF-8"?>
<svg id="Layer_1" data-name="Layer 1" xmlns="http://www.w3.org/2000/svg" viewBox="0 0 22 22">
  <defs>
    <style>
      .cls-1 {
        fill: none;
        stroke: #fff;
        stroke-linecap: round;
        stroke-linejoin: round;
        stroke-width: 2px;
      }
    </style>
  </defs>
  <path class="cls-1" d="M1,11v3.45c0,2.85,.7,4.01,1.61,4.94,.94,.91,2.1,1.61,4.95,1.61h6.9c2.85,0,4.01-.7,4.95-1.61,.91-.94,1.61-2.09,1.61-4.94V7.55c0-2.85-.7-4.01-1.61-4.95-.94-.91-2.1-1.61-4.95-1.61H7.55c-2.85,0-4.01,.7-4.95,1.61-.91,.94-1.61,2.1-1.61,4.95v3.45Zm4.55,0h10.91m-5.45-5.46v10.91"/>
</svg>