<?xml version="1.0" encoding="UTF-8"?>
<svg id="Layer_2" data-name="Layer 2" xmlns="http://www.w3.org/2000/svg" viewBox="0 0 22 22">
  <defs>
    <style>
      .cls-1 {
        stroke-linecap: round;
      }

      .cls-1, .cls-2 {
        fill: none;
        stroke: #fff;
        stroke-linejoin: round;
        stroke-width: 2px;
      }

      .cls-3 {
        fill: #fff;
        fill-rule: evenodd;
      }
    </style>
  </defs>
  <g id="Layer_1-2" data-name="Layer 1">
    <path class="cls-2" d="M1,6H21"/>
    <path class="cls-1" d="M12.5,1l2.9,5M6.2,1.1l2.8,4.9M1,11v3.4c0,2.8,.7,4,1.6,4.9,.9,1,2.1,1.7,5,1.7h6.9c2.8,0,4-.7,4.9-1.6s1.6-2.1,1.6-4.9V7.6c0-2.8-.7-4-1.6-4.9-.9-1-2.1-1.7-5-1.7H7.6c-2.8,0-4,.7-4.9,1.6-1,.9-1.7,2.1-1.7,5v3.4Z"/>
    <path class="cls-3" d="M8.8,16.7c-.3-.2-.5-.5-.5-.8v-5.2c0-.5,.4-.9,.9-.9,.2,0,.3,0,.5,.1l4.5,2.6c.4,.3,.6,.8,.3,1.2-.1,.1-.2,.3-.3,.3l-4.5,2.6c-.3,.2-.7,.2-.9,.1h0Z"/>
  </g>
</svg>