<?xml version="1.0" encoding="UTF-8"?>
<svg id="Layer_1" data-name="Layer 1" xmlns="http://www.w3.org/2000/svg" viewBox="0 0 16.68 16.68">
  <defs>
    <style>
      .cls-1 {
        fill: #fff;
      }
    </style>
  </defs>
  <path class="cls-1" d="M13.29,10.95V2.38c0-1.33-1.05-2.38-2.38-2.38H2.38C1.05,0,0,1.05,0,2.38V10.95c0,1.33,1.05,2.38,2.38,2.38H10.95c1.28-.05,2.34-1.1,2.34-2.38Zm2.02-6.74v7.38c0,2.06-1.7,3.76-3.76,3.76H4.17c-.28,0-.41,.32-.23,.5,.46,.5,1.1,.82,1.88,.82h6.14c2.61,0,4.72-2.11,4.72-4.72V5.82c0-.73-.32-1.42-.82-1.88-.23-.18-.55,0-.55,.28Z"/>
</svg>