<?xml version="1.0" encoding="utf-8"?>
<!-- Generator: Adobe Illustrator 26.5.0, SVG Export Plug-In . SVG Version: 6.00 Build 0)  -->
<svg version="1.1" id="Layer_1" xmlns="http://www.w3.org/2000/svg" xmlns:xlink="http://www.w3.org/1999/xlink" x="0px" y="0px"
	 viewBox="0 0 21.8 21.8" style="enable-background:new 0 0 21.8 21.8;" xml:space="preserve">
<style type="text/css">
	.st0{fill:none;stroke:#231F20;stroke-width:1.74;stroke-miterlimit:10;}
	.st1{fill-rule:evenodd;clip-rule:evenodd;fill:#231F20;}
</style>
<path class="st0" d="M10.9,0.9c5.4-0.2,9.8,4,10,9.4c0.2,5.4-4,9.8-9.4,10c-0.2,0-0.4,0-0.6,0c-1,0-1.9-0.1-2.9-0.4
	c-0.2,0-0.4,0-0.5,0l-2,0.9c-0.4,0.2-0.9,0-1.1-0.4c0-0.1-0.1-0.2-0.1-0.3l-0.1-1.8c0-0.2-0.1-0.4-0.3-0.6c-2-1.8-3.2-4.5-3.1-7.2
	c0-5.3,4.3-9.7,9.6-9.7C10.6,0.9,10.7,0.9,10.9,0.9L10.9,0.9L10.9,0.9z"/>
<path class="st1" d="M16.7,9c0.2-0.3,0.1-0.7-0.2-0.9c-0.2-0.2-0.5-0.1-0.8,0l-2.6,2.1c-0.2,0.2-0.5,0.2-0.8,0L9.9,8.4
	C9.2,7.8,8.2,8,7.7,8.7c0,0-0.1,0.1-0.1,0.1l-2.6,4c-0.2,0.3-0.1,0.7,0.2,0.9c0.2,0.1,0.5,0.1,0.8,0l2.6-2.1c0.2-0.2,0.5-0.2,0.8,0
	l2.4,1.8c0.7,0.5,1.7,0.4,2.2-0.3c0,0,0.1-0.1,0.1-0.1C14.1,13,16.7,9,16.7,9z"/>
</svg>
