<?xml version="1.0" encoding="utf-8"?>
<!-- Generator: Adobe Illustrator 26.5.0, SVG Export Plug-In . SVG Version: 6.00 Build 0)  -->
<svg version="1.1" id="Layer_2_00000096031240597277200950000017057575713074524039_"
	 xmlns="http://www.w3.org/2000/svg" xmlns:xlink="http://www.w3.org/1999/xlink" x="0px" y="0px" viewBox="0 0 22 17"
	 style="enable-background:new 0 0 22 17;" xml:space="preserve">
<style type="text/css">
	.st0{fill:none;stroke:#FFFFFF;stroke-width:2;stroke-miterlimit:10;}
</style>
<g id="Layer_1-2">
	<path class="st0" d="M18.2,16c1.3-5.9,2-8.6,2.4-10.1c0.1-0.3,0.5-1.6,0.3-1.6c-0.1,0-0.3,0.4-0.6,0.8c-1,1.2-2.5,1.5-2.8,1.5
		c-2,0.3-3.5-1-3.9-1.3c-0.6-0.5-1.5-1.5-2-2.9C11.4,1.7,11.3,1,11.1,1c-0.2,0-0.3,0.7-0.7,1.5c0,0.1-0.6,1.5-1.8,2.6
		C8,5.6,6.7,6.8,4.9,6.7C3.7,6.7,2.3,6.1,1.6,5C1.4,4.7,1.2,4.3,1.1,4.3c-0.1,0.1,0,0.8,0.1,1.2C1.6,7.4,3,12.9,3.8,16L18.2,16z"/>
</g>
</svg>
