<?xml version="1.0" encoding="UTF-8"?>
<svg id="Layer_2" data-name="Layer 2" xmlns="http://www.w3.org/2000/svg" viewBox="0 0 16.99 15.38">
  <defs>
    <style>
      .cls-1 {
        fill: #231f20;
      }

      .cls-2 {
        fill: none;
        stroke: #231f20;
        stroke-linecap: round;
        stroke-miterlimit: 10;
        stroke-width: 2px;
      }
    </style>
  </defs>
  <g id="Layer_1-2" data-name="Layer 1">
    <path class="cls-1" d="M10.66,15.38c-3.4,0-6.17-2.77-6.17-6.17S7.26,3.05,10.66,3.05s6.32,2.86,6.32,6.24c0,.77-.28,2.04-.55,2.71-.31,.78,.85,2.57,.25,3.16-.55,.55-2.54-.7-3.27-.39-.79,.34-1.83,.61-2.75,.61Zm0-10.43c-2.35,0-4.26,1.91-4.26,4.26s1.91,4.26,4.26,4.26c.78,0,1.31-.29,2.11-.4,.32-.05,.69-.04,1.02-.01,.2,.02,1.04,.27,1.04,.27,0,0-.32-.94-.35-1.22-.02-.2,0-.37,.02-.68,.04-.67,.4-1.9,.4-2.42,0-2.35-1.85-4.05-4.24-4.05Z"/>
    <path class="cls-2" d="M2.91,9.65c-1.07,0-1.71,.57-1.88,.25-.15-.28,.43-1.17,.48-1.95,.05-.72-.42-1.29-.42-2.15C1.09,2.93,2.83,.76,6.01,1.02c.53,.04,1.55,.48,1.55,.48"/>
  </g>
</svg>