<?xml version="1.0" encoding="utf-8"?>
<!-- Generator: Adobe Illustrator 26.5.0, SVG Export Plug-In . SVG Version: 6.00 Build 0)  -->
<svg version="1.1" id="Layer_1" xmlns="http://www.w3.org/2000/svg" xmlns:xlink="http://www.w3.org/1999/xlink" x="0px" y="0px"
	 viewBox="0 0 11 11" style="enable-background:new 0 0 11 11;" xml:space="preserve">
<style type="text/css">
	.st0{fill:#231F20;}
</style>
<path class="st0" d="M7.8,3C7.6,2.7,7.1,2.6,6.8,2.9C6.4,3.1,6.4,3.6,6.6,3.9l0,0c0.3,0.5,0.5,1,0.6,1.6c0,0.6-0.2,1.1-0.6,1.6
	C6.4,7.4,6.4,7.9,6.7,8.1C7.1,8.4,7.5,8.3,7.8,8c0,0,0,0,0,0c0.5-0.7,0.8-1.6,0.9-2.5C8.7,4.6,8.4,3.7,7.8,3z M9.7,1.8
	C9.4,1.5,9,1.5,8.6,1.7C8.3,2,8.2,2.4,8.5,2.8c0,0,0,0,0,0c0.6,0.8,1,1.7,1,2.7c0,1-0.4,1.9-1,2.7C8.3,8.5,8.3,9,8.6,9.3
	c0.3,0.3,0.8,0.2,1-0.1c0.8-1,1.3-2.3,1.3-3.7C11,4.2,10.5,2.9,9.7,1.8z M5.2,0C5,0,4.8,0,4.7,0.1L2.1,2.5H0.5C0.2,2.5,0,2.7,0,3v5
	c0,0.3,0.2,0.5,0.5,0.5h1.6l2.5,2.3l0,0c0.2,0.2,0.5,0.2,0.7,0c0.1-0.1,0.2-0.3,0.1-0.4l0-9.9C5.5,0.3,5.4,0.1,5.2,0z"/>
</svg>
