<?xml version="1.0" encoding="UTF-8"?>
<svg id="Layer_1" data-name="Layer 1" xmlns="http://www.w3.org/2000/svg" viewBox="0 0 12.35 12.37">
  <defs>
    <style>
      .cls-1 {
        fill: #fff;
        fill-rule: evenodd;
      }
    </style>
  </defs>
  <path class="cls-1" d="M.54,3.51c-.2,0-.38,.17-.38,.38v4.6c0,.2,.17,.38,.38,.38H2.71l3.22,3.22c.22,.23,.62,.07,.62-.25v-2.45c0-.1-.05-.2-.1-.27L.96,3.61c-.07-.08-.18-.1-.27-.1,0,0-.15,0-.15,0Zm11.7,7.85l-1.38-1.38c.53-.65,1.3-1.95,1.3-3.8,0-2.85-1.8-4.35-1.8-4.35-.15-.15-.4-.15-.55,0l-.35,.35c-.15,.15-.15,.4,0,.55,0,0,1.43,1.25,1.43,3.45,0,1.35-.52,2.32-.95,2.9l-.9-.9c.27-.43,.57-1.1,.57-2,0-1.7-1.02-2.58-1.02-2.58-.15-.15-.4-.15-.55,0l-.35,.35c-.15,.15-.15,.4,0,.55,0,0,.65,.5,.65,1.68,0,.45-.1,.8-.22,1.07l-1.58-1.57V.54c0-.32-.4-.47-.62-.25L3.54,2.69,.99,.11C.84-.04,.61-.04,.46,.11L.11,.46C-.04,.61-.04,.84,.11,.99l1.05,1.1,6.7,6.7,3.47,3.47c.15,.15,.38,.15,.52,0l.35-.35c.18-.15,.18-.4,.03-.55Z"/>
</svg>