<?xml version="1.0" encoding="utf-8"?>
<!-- Generator: Adobe Illustrator 26.5.0, SVG Export Plug-In . SVG Version: 6.00 Build 0)  -->
<svg version="1.1" id="Layer_1" xmlns="http://www.w3.org/2000/svg" xmlns:xlink="http://www.w3.org/1999/xlink" x="0px" y="0px"
	 viewBox="0 0 18 18" style="enable-background:new 0 0 18 18;" xml:space="preserve">
<style type="text/css">
	.st0{fill-rule:evenodd;clip-rule:evenodd;fill:#FFFFFF;}
</style>
<path class="st0" d="M9.6,0.8l2.2,3.8H7.7l-2-3.7c0.2,0,0.3,0,0.5,0l0.3,0H9.6z M11.4,0.8h0.2c2.3,0,3.4,0.6,4.2,1.4
	c0.6,0.6,1,1.3,1.2,2.1l0.1,0.2h-3.5L11.4,0.8z M4.1,1L6,4.5h-5c0.3-1.6,1.4-2.9,3-3.4L4.1,1z M11.4,10.7L8,8.7
	C7.7,8.5,7.3,8.6,7.1,8.9C7,9,7,9.1,7,9.2l0,0.1v3.9c0,0.4,0.3,0.7,0.7,0.7c0.1,0,0.2,0,0.3-0.1l0.1,0l3.4-2
	c0.3-0.2,0.4-0.6,0.2-0.9C11.6,10.8,11.6,10.8,11.4,10.7L11.4,10.7L8,8.7L11.4,10.7z M0.8,6h16.5l0,0.3l0,0.1v5.2
	c0,2.3-0.6,3.4-1.4,4.2c-0.9,0.8-1.9,1.4-4,1.4l-0.3,0H6.4c-2.3,0-3.4-0.6-4.2-1.4c-0.8-0.9-1.4-1.9-1.4-4l0-0.2V6.4l0-0.1L0.8,6z"
	/>
</svg>
