<?xml version="1.0" encoding="utf-8"?>
<!-- Generator: Adobe Illustrator 26.5.0, SVG Export Plug-In . SVG Version: 6.00 Build 0)  -->
<svg version="1.1" id="Layer_1" xmlns="http://www.w3.org/2000/svg" xmlns:xlink="http://www.w3.org/1999/xlink" x="0px" y="0px"
	 viewBox="0 0 17.8 17.8" style="enable-background:new 0 0 17.8 17.8;" xml:space="preserve">
<path d="M16.5,8.7l1.3-2.2l-2.3-1.3v-3h-2.7l-1.2-2C11.5,0,11.2-0.1,11,0.1L8.8,1.4L6.5,0L5.2,2.2H2.5V5l-2,1.2
	C0.3,6.3,0.2,6.5,0.3,6.7l1.2,2L0,11.3l2.5,1.4v2.5h2.8l1.2,2c0.1,0.2,0.3,0.3,0.5,0.1l1.8-1.1l2.5,1.4l1.5-2.6h2.7v-2.7l2.1-1.2
	c0.2-0.1,0.3-0.3,0.1-0.5L16.5,8.7z M13.2,8l-4.9,4.7L5.3,10C4.9,9.6,4.9,9,5.2,8.6c0.4-0.4,1-0.4,1.4-0.1l1.5,1.4l3.6-3.4
	c0.4-0.4,1-0.4,1.4,0C13.6,7,13.6,7.6,13.2,8z"/>
</svg>
