<?xml version="1.0" encoding="utf-8"?>
<!-- Generator: Adobe Illustrator 26.5.0, SVG Export Plug-In . SVG Version: 6.00 Build 0)  -->
<svg version="1.1" id="Layer_1" xmlns="http://www.w3.org/2000/svg" xmlns:xlink="http://www.w3.org/1999/xlink" x="0px" y="0px"
	 viewBox="0 0 22 22" style="enable-background:new 0 0 22 22;" xml:space="preserve">
<style type="text/css">
	.st0{fill:#231F20;}
</style>
<path class="st0" d="M11,4.5l-0.1,0l-0.1,0C10.4,4.7,10.1,5,10,5.4l0,0.1V10H5.5l-0.1,0c-0.5,0.1-0.8,0.4-0.9,0.9l0,0.1l0,0.1
	C4.6,11.6,5,11.9,5.4,12l0.1,0H10l0,4.5l0,0.1c0.1,0.5,0.4,0.8,0.9,0.9l0.1,0l0.1,0c0.5-0.1,0.8-0.4,0.9-0.9l0-0.1V12h4.5l0.1,0
	c0.5-0.1,0.8-0.4,0.9-0.9l0-0.1l0-0.1c-0.1-0.5-0.4-0.8-0.9-0.9l-0.1,0H12l0-4.5l0-0.1c-0.1-0.5-0.4-0.8-0.9-0.9L11,4.5z M7.6,0h6.9
	c2.8,0,4.3,0.6,5.7,1.9c1.3,1.3,1.8,2.8,1.9,5.3l0,0.3v6.9c0,2.8-0.6,4.3-1.9,5.7c-1.3,1.3-2.8,1.8-5.3,1.9l-0.3,0H7.6
	c-2.8,0-4.3-0.6-5.7-1.9C0.6,18.8,0,17.3,0,14.8l0-0.3V7.6c0-2.8,0.6-4.3,1.9-5.7C3.2,0.6,4.7,0.1,7.2,0L7.6,0L7.6,0z"/>
</svg>
