<?xml version="1.0" encoding="utf-8"?>
<!-- Generator: Adobe Illustrator 26.5.0, SVG Export Plug-In . SVG Version: 6.00 Build 0)  -->
<svg version="1.1" id="Layer_1" xmlns="http://www.w3.org/2000/svg" xmlns:xlink="http://www.w3.org/1999/xlink" x="0px" y="0px"
	 viewBox="0 0 24 24.1" style="enable-background:new 0 0 24 24.1;" xml:space="preserve">
<style type="text/css">
	.st0{fill:#352F90;}
</style>
<path d="M19,0H5C2.2,0,0,2.2,0,5v14.1c0,2.7,2.2,5,5,5H19c2.7,0,5-2.2,5-5V5C24,2.2,21.8,0,19,0z M6.1,4c1.1,0,2,0.9,2,2
	c0,1.1-0.9,2-2,2c-1.1,0-2-0.9-2-2C4.1,4.9,5,4,6.1,4z M21.1,20c0,0.1-0.1,0.4-0.3,0.7c-0.3,0.3-0.6,0.3-0.7,0.4
	c-8.5,0-14.6,0-15.7,0c-0.2,0-0.7,0-1-0.3c-0.3-0.3-0.3-0.7-0.3-1c0-1.3,0-2.5,0-3.3c0.2-0.4,0.5-0.9,1-1.3c0.3-0.3,0.7-0.6,1.3-0.8
	c0.3-0.1,1-0.3,1.7,0c0.3,0.2,0.5,0.4,0.7,0.5c1,1,2,1.9,3,2.9c2.2-2.2,4.4-4.4,6.7-6.5c0.2-0.1,0.6-0.2,1-0.2
	c0.5,0,0.9,0.3,1.3,0.5c0.3,0.2,0.9,0.6,1.3,1.3C21.1,15.1,21.1,17.5,21.1,20z"/>
<path class="st0" d="M36.2,18.4"/>
</svg>
