<?xml version="1.0" encoding="utf-8"?>
<!-- Generator: Adobe Illustrator 26.5.0, SVG Export Plug-In . SVG Version: 6.00 Build 0)  -->
<svg version="1.1" id="Layer_1" xmlns="http://www.w3.org/2000/svg" xmlns:xlink="http://www.w3.org/1999/xlink" x="0px" y="0px"
	 viewBox="0 0 22 22" style="enable-background:new 0 0 22 22;" xml:space="preserve">
<style type="text/css">
	.st0{fill:none;stroke:#231F20;stroke-width:2;stroke-linecap:round;stroke-linejoin:round;}
</style>
<path class="st0" d="M1,11v3.4c0,2.8,0.7,4,1.6,4.9C3.5,20.3,4.7,21,7.6,21h6.9c2.8,0,4-0.7,4.9-1.6c0.9-0.9,1.6-2.1,1.6-4.9V7.6
	c0-2.8-0.7-4-1.6-4.9C18.5,1.7,17.3,1,14.4,1H7.6c-2.8,0-4,0.7-4.9,1.6C1.7,3.5,1,4.7,1,7.6V11z M5.5,11h10.9 M11,5.5v10.9"/>
</svg>
