<?xml version="1.0" encoding="UTF-8"?>
<svg id="Layer_2" data-name="Layer 2" xmlns="http://www.w3.org/2000/svg" viewBox="0 0 21.2 23.06">
  <defs>
    <style>
      .cls-1 {
        stroke-linecap: round;
      }

      .cls-1, .cls-2 {
        stroke-width: 2px;
      }

      .cls-1, .cls-2, .cls-3 {
        fill: none;
        stroke: #fff;
        stroke-miterlimit: 10;
      }

      .cls-3 {
        stroke-width: 2.15px;
      }
    </style>
  </defs>
  <g id="Layer_1-2" data-name="Layer 1">
    <g>
      <path class="cls-2" d="M7,4.57c-.02-1.97,1.6-3.59,3.54-3.57,1.93,.02,3.51,1.63,3.49,3.57"/>
      <path class="cls-3" d="M1.08,16.65c-.01,.45-.01,2.01,1.11,3.41,1.52,1.91,3.83,1.93,4.14,1.93,2.8,0,5.6,0,8.39-.01,.44,.02,2,.05,3.42-1.05,1.93-1.49,1.99-3.82,1.99-4.12-.17-2.96-.34-5.92-.51-8.88,0-.14-.02-1.06-.78-1.72-.64-.56-1.38-.56-1.56-.55-4.47-.02-8.95-.04-13.42-.06-.14,0-1.05,0-1.73,.73-.58,.63-.59,1.37-.59,1.55l-.44,8.77Z"/>
      <path class="cls-1" d="M7.13,9.25c.03,1.87,1.57,3.39,3.43,3.4,1.87,.01,3.44-1.51,3.47-3.4"/>
    </g>
  </g>
</svg>