<?xml version="1.0" encoding="utf-8"?>
<!-- Generator: Adobe Illustrator 26.5.0, SVG Export Plug-In . SVG Version: 6.00 Build 0)  -->
<svg version="1.1" id="Layer_1" xmlns="http://www.w3.org/2000/svg" xmlns:xlink="http://www.w3.org/1999/xlink" x="0px" y="0px"
	 viewBox="0 0 24 24" style="enable-background:new 0 0 24 24;" xml:space="preserve">
<style type="text/css">
	.st0{fill:#FAFAFA;}
</style>
<path class="st0" d="M22,23h-6c-0.6,0-1-0.4-1-1v-5.5c0-1.7-1.3-3-2.9-3.1c-1.7,0-3,1.3-3.1,2.9c0,0,0,0.1,0,0.1V22c0,0.6-0.4,1-1,1
	H2c-0.6,0-1-0.4-1-1V11.5c0-0.3,0.1-0.5,0.3-0.7l10-9.5c0.4-0.4,1-0.4,1.4,0l10,9.5c0.2,0.2,0.3,0.5,0.3,0.7V22
	C23,22.6,22.6,23,22,23z"/>
</svg>
