<?xml version="1.0" encoding="utf-8"?>
<!-- Generator: Adobe Illustrator 26.5.0, SVG Export Plug-In . SVG Version: 6.00 Build 0)  -->
<svg version="1.1" id="Layer_1" xmlns="http://www.w3.org/2000/svg" xmlns:xlink="http://www.w3.org/1999/xlink" x="0px" y="0px"
	 viewBox="0 0 23 22.2" style="enable-background:new 0 0 23 22.2;" xml:space="preserve">
<g>
	<g>
		<g>
			<path d="M21.5,15.8h-5.1c-0.5,0-1-0.4-1-1v-0.1c0-0.5,0.4-1,1-1h5.1c0.5,0,1,0.4,1,1v0.1C22.5,15.3,22.1,15.8,21.5,15.8z"/>
			<path d="M21.5,16.3h-5.1c-0.8,0-1.5-0.7-1.5-1.5c0-0.9,0.7-1.5,1.5-1.5h5.1c0.8,0,1.5,0.7,1.5,1.5C23,15.6,22.3,16.3,21.5,16.3z
				 M16.5,14.3c-0.3,0-0.5,0.2-0.5,0.5c0,0.3,0.2,0.5,0.5,0.5h5.1c0.3,0,0.5-0.2,0.5-0.5c0-0.3-0.2-0.5-0.5-0.5H16.5z"/>
		</g>
		<g>
			<path d="M22.5,14.7v5.1c0,0.5-0.4,1-1,1h-0.1c-0.5,0-1-0.4-1-1v-5.1c0-0.5,0.4-1,1-1h0.1C22.1,13.8,22.5,14.2,22.5,14.7z"/>
			<path d="M21.5,21.3c-0.9,0-1.5-0.7-1.5-1.5v-5.1c0-0.8,0.7-1.5,1.5-1.5c0.9,0,1.5,0.7,1.5,1.5v5.1C23,20.6,22.3,21.3,21.5,21.3z
				 M21.5,14.3c-0.3,0-0.5,0.2-0.5,0.5v5.1c0,0.3,0.2,0.5,0.5,0.5c0.3,0,0.5-0.2,0.5-0.5v-5.1C22,14.5,21.8,14.3,21.5,14.3z"/>
		</g>
	</g>
	<g>
		<g>
			<path d="M1.5,6.4l5.1,0c0.5,0,1,0.4,1,1v0.1c0,0.5-0.4,1-1,1l-5.1,0c-0.5,0-1-0.4-1-1l0-0.1C0.5,6.9,0.9,6.4,1.5,6.4z"/>
			<path d="M6.5,8.9H1.5C0.7,8.9,0,8.3,0,7.5c0-0.9,0.7-1.5,1.5-1.5h5.1C7.3,5.9,8,6.6,8,7.4C8,8.3,7.3,8.9,6.5,8.9z M1.5,6.9
				C1.2,6.9,1,7.1,1,7.4c0,0.3,0.2,0.5,0.5,0.5h5.1C6.8,7.9,7,7.7,7,7.5c0-0.3-0.2-0.5-0.5-0.5H1.5z"/>
		</g>
		<g>
			<path d="M0.5,7.5l0-5.1c0-0.5,0.4-1,1-1l0.1,0c0.5,0,1,0.4,1,1l0,5.1c0,0.5-0.4,1-1,1H1.5C0.9,8.4,0.5,8,0.5,7.5z"/>
			<path d="M1.5,8.9C0.7,8.9,0,8.3,0,7.5V2.4c0-0.8,0.7-1.5,1.5-1.5C2.3,0.9,3,1.6,3,2.4v5.1C3,8.3,2.3,8.9,1.5,8.9z M1.5,1.9
				C1.2,1.9,1,2.1,1,2.4v5.1c0,0.3,0.2,0.5,0.5,0.5C1.8,7.9,2,7.7,2,7.5V2.4C2,2.1,1.8,1.9,1.5,1.9z"/>
		</g>
	</g>
	<g>
		<path d="M2.9,7.1c-0.2,0-0.3,0-0.5-0.1C1.9,6.7,1.7,6,1.9,5.5C3.5,2.4,7.8,0,11.6,0c3,0,5.8,1.2,7.8,3.4c0.4,0.4,0.4,1.1-0.1,1.6
			c-0.4,0.4-1.1,0.4-1.6-0.1c-1.6-1.7-3.8-2.6-6.2-2.7c-3,0-6.4,1.9-7.7,4.3C3.7,6.9,3.3,7.1,2.9,7.1z"/>
	</g>
	<g>
		<path d="M11.4,22.2c-3,0-5.7-1.1-7.7-3.2c-0.4-0.4-0.4-1.1,0-1.6c0.4-0.4,1.1-0.4,1.6,0c1.6,1.7,3.8,2.6,6.2,2.5
			c3,0,6.4-2.1,7.6-4.5c0.3-0.5,0.9-0.8,1.5-0.5c0.5,0.3,0.8,0.9,0.5,1.5c-1.5,3.1-5.7,5.6-9.5,5.7C11.5,22.2,11.4,22.2,11.4,22.2z"
			/>
	</g>
</g>
</svg>
