<?xml version="1.0" encoding="utf-8"?>
<!-- Generator: Adobe Illustrator 26.5.0, SVG Export Plug-In . SVG Version: 6.00 Build 0)  -->
<svg version="1.1" id="Layer_1" xmlns="http://www.w3.org/2000/svg" xmlns:xlink="http://www.w3.org/1999/xlink" x="0px" y="0px"
	 viewBox="0 0 23 20.2" style="enable-background:new 0 0 23 20.2;" xml:space="preserve">
<style type="text/css">
	.st0{fill:#231F20;}
</style>
<path class="st0" d="M16.3,0c-1.8-0.1-3.6,0.7-4.8,2.1c-1.2-1.4-3-2.2-4.8-2.1C2.9,0.2-0.1,3.4,0,7.2c0,3.6,2.5,5.8,5,8
	c0.3,0.2,0.6,0.5,0.9,0.7l1,0.9c1.1,1.1,2.3,2.1,3.5,3c0.7,0.4,1.5,0.4,2.2,0c1.3-1,2.5-2,3.6-3.1l0.9-0.8c0.3-0.3,0.6-0.5,0.9-0.8
	c2.3-2,5-4.3,5-7.9C23.1,3.4,20.1,0.2,16.3,0z"/>
</svg>
