<?xml version="1.0" encoding="UTF-8"?>
<svg id="Layer_1" data-name="Layer 1" xmlns="http://www.w3.org/2000/svg" viewBox="0 0 16.5 16.5">
  <defs>
    <style>
      .cls-1 {
        fill: #fff;
        fill-rule: evenodd;
      }
    </style>
  </defs>
  <path class="cls-1" d="M8.87,0l2.23,3.75H6.91L4.93,.02c.15,0,.31-.02,.48-.02h.26s3.2,0,3.2,0Zm1.75,0h.22c2.29,0,3.35,.57,4.23,1.42,.59,.58,1,1.31,1.2,2.11l.05,.22h-3.47L10.61,0ZM3.36,.28l1.85,3.47H.18C.49,2.17,1.62,.88,3.14,.35l.22-.07Zm7.3,9.63l-3.41-1.97c-.33-.19-.74-.08-.93,.25-.04,.08-.07,.16-.09,.25v.09s0,3.94,0,3.94c0,.38,.31,.68,.68,.68,.09,0,.18-.02,.26-.05l.08-.04,3.41-1.97c.33-.19,.44-.61,.25-.93-.04-.08-.1-.14-.17-.2l-.08-.05-3.41-1.97,3.41,1.97ZM.01,5.25H16.49v.27s.01,.14,.01,.14v5.17c0,2.3-.57,3.35-1.42,4.23-.86,.84-1.88,1.39-4,1.43h-.25s-5.17,0-5.17,0c-2.29,0-3.35-.57-4.23-1.42C.6,14.22,.04,13.21,0,11.09v-.25s0-5.17,0-5.17v-.14s.01-.27,.01-.27Z"/>
</svg>