<?xml version="1.0" encoding="UTF-8"?>
<svg id="Layer_1" data-name="Layer 1" xmlns="http://www.w3.org/2000/svg" viewBox="0 0 14.67 14.01">
  <defs>
    <style>
      .cls-1 {
        fill: #fff;
      }
    </style>
  </defs>
  <path class="cls-1" d="M11.45,14.01c-.12,0-.24-.03-.34-.09l-3.78-2.26-3.78,2.26c-.32,.19-.73,.09-.91-.23-.09-.14-.11-.31-.08-.48l.91-4.36L.22,5.95c-.27-.24-.3-.67-.05-.94,.11-.12,.25-.2,.41-.22l4.37-.57L6.73,.39c.16-.33,.55-.48,.89-.32,.14,.07,.26,.18,.32,.32l1.78,3.84,4.37,.57c.36,.05,.62,.38,.58,.75-.02,.16-.1,.31-.22,.41l-3.25,2.9,.91,4.36c.08,.36-.16,.71-.52,.79-.04,0-.09,.01-.14,.01h0Zm-4.12-3.8c.12,0,.24,.03,.34,.09l2.81,1.69-.68-3.25c-.05-.23,.03-.48,.21-.63l2.45-2.18-3.29-.43c-.23-.03-.42-.17-.52-.38l-1.33-2.87-1.33,2.86c-.1,.21-.29,.35-.52,.38l-3.29,.43,2.45,2.18c.18,.16,.26,.4,.21,.63l-.68,3.25,2.81-1.68c.1-.06,.22-.09,.34-.09Z"/>
</svg>