<?xml version="1.0" encoding="utf-8"?>
<!-- Generator: Adobe Illustrator 26.5.0, SVG Export Plug-In . SVG Version: 6.00 Build 0)  -->
<svg version="1.1" id="Layer_1" xmlns="http://www.w3.org/2000/svg" xmlns:xlink="http://www.w3.org/1999/xlink" x="0px" y="0px"
	 viewBox="0 0 12.3 12.4" style="enable-background:new 0 0 12.3 12.4;" xml:space="preserve">
<style type="text/css">
	.st0{fill-rule:evenodd;clip-rule:evenodd;fill:#231F20;}
</style>
<path class="st0" d="M0.5,3.5c-0.2,0-0.4,0.2-0.4,0.4v4.6c0,0.2,0.2,0.4,0.4,0.4h2.2l3.2,3.2c0.2,0.2,0.6,0.1,0.6-0.2V9.4
	c0-0.1-0.1-0.2-0.1-0.3L1,3.6C0.9,3.5,0.8,3.5,0.7,3.5C0.7,3.5,0.5,3.5,0.5,3.5z M12.2,11.4L10.9,10c0.5-0.7,1.3-1.9,1.3-3.8
	c0-2.8-1.8-4.3-1.8-4.3c-0.1-0.1-0.4-0.1-0.6,0L9.5,2.2c-0.1,0.2-0.1,0.4,0,0.5c0,0,1.4,1.2,1.4,3.5c0,1.3-0.5,2.3-0.9,2.9L9,8.2
	c0.3-0.4,0.6-1.1,0.6-2c0-1.7-1-2.6-1-2.6C8.4,3.5,8.2,3.5,8,3.6L7.7,4c-0.2,0.2-0.2,0.4,0,0.5c0,0,0.7,0.5,0.7,1.7
	c0,0.4-0.1,0.8-0.2,1.1L6.5,5.7V0.5c0-0.3-0.4-0.5-0.6-0.3L3.5,2.7L1,0.1C0.8,0,0.6,0,0.5,0.1L0.1,0.5C0,0.6,0,0.8,0.1,1l1.1,1.1
	l6.7,6.7l3.5,3.5c0.1,0.1,0.4,0.1,0.5,0l0.4-0.4C12.4,11.8,12.4,11.5,12.2,11.4z"/>
</svg>
