<?xml version="1.0" encoding="utf-8"?>
<!-- Generator: Adobe Illustrator 26.5.0, SVG Export Plug-In . SVG Version: 6.00 Build 0)  -->
<svg version="1.1" id="Layer_1" xmlns="http://www.w3.org/2000/svg" xmlns:xlink="http://www.w3.org/1999/xlink" x="0px" y="0px"
	 viewBox="0 0 10 10" style="enable-background:new 0 0 10 10;" xml:space="preserve">
<g>
	<path d="M5,10L5,10c-0.6,0-1-0.4-1-1V1c0-0.6,0.4-1,1-1h0c0.6,0,1,0.4,1,1v8C6,9.6,5.6,10,5,10z"/>
	<path d="M0,5L0,5c0-0.6,0.4-1,1-1h8c0.6,0,1,0.4,1,1v0c0,0.6-0.4,1-1,1H1C0.4,6,0,5.6,0,5z"/>
</g>
</svg>
