<?xml version="1.0" encoding="UTF-8"?>
<svg id="Layer_1" data-name="Layer 1" xmlns="http://www.w3.org/2000/svg" viewBox="0 0 102.4 28.99">
  <defs>
    <style>
      .cls-1 {
        fill: #fff;
        fill-rule: evenodd;
      }
    </style>
  </defs>
  <path class="cls-1" d="M5.27,.09C3.17,.97,.87,3.45,.14,6.56c-.92,3.93,2.91,5.59,3.23,5.05,.36-.63-.69-.85-.91-2.9-.27-2.63,.95-5.58,2.49-6.87,.29-.24,.27,.09,.27,.71l-.05,13.1c0,2.81-.12,3.69-.33,4.57-.21,.89-.54,1.49-.3,1.72,.29,.25,1.52-.36,2.23-1.36,.81-1.23,1.23-2.68,1.21-4.15,.06-1.87,.05-4.83,.06-6.52,0-1.54,.03-6.08-.03-8.81-.02-.67-1.88-1.37-2.75-1h0ZM79.7,13.22c-.03,1.18-.3,2.33-.8,3.4-.77,1.56-2.38,2.04-3.07-.2-.36-1.21-.39-3.25-.12-4.96,.27-1.72,1.03-3.04,2.29-2.92,1.25,.12,1.83,1.72,1.69,4.68Zm-20.98,9.04c-.02,2.42-.4,4.54-1.21,5.17-1.17,.87-2.72,.21-2.4-1.56,.28-1.56,1.63-3.15,3.62-5.11v1.5Zm-.33-9.06c-.05,1.18-.32,2.34-.8,3.42-.77,1.56-2.39,2.04-3.07-.2-.45-1.53-.34-3.51-.12-4.76,.3-1.61,1.02-3.12,2.29-3.12s1.87,1.36,1.69,4.66Zm-12.15-.02c-.02,1.19-.29,2.36-.79,3.44-.8,1.54-2.38,2.03-3.08-.21-.5-1.6-.33-3.81-.12-4.98,.31-1.77,1.09-3.01,2.29-2.9,1.25,.13,1.85,1.72,1.69,4.65Zm55.69,1.64c-.3,0-.44,.32-.55,.84-.4,1.83-.82,2.25-1.36,2.25-.6,0-1.14-.91-1.29-2.72-.11-1.43-.09-4.06,.05-6.68,.03-.53-.13-1.06-1.57-1.59-.62-.23-1.52-.56-1.97,.53-.9,2.07-1.53,4.24-1.89,6.47,0,.05-.07,.06-.09-.05-.06-.79-.24-2.23-.25-5.25,0-.59-.13-1.09-.78-1.5-.43-.27-1.7-.73-2.17-.18-.39,.45-.85,1.69-1.33,3.15l-.67,1.99V7.67c0-.45-.3-.61-.4-.63-.53-.16-1.08-.28-1.63-.34-.44,0-.54,.24-.54,.61,0,.05-.07,4.21-.07,7.13v.42c-.24,1.34-1.03,3.16-1.89,3.16s-1.27-.76-1.27-4.24c0-2.03,.06-2.91,.09-4.38,.02-.85,.05-1.5,.05-1.64,0-.45-.79-.68-1.15-.77-.36-.08-.69-.12-.93-.1-.36,.02-.61,.24-.61,.56v.5c-.39-.62-.97-1.09-1.66-1.35-1.31-.39-2.66-.05-3.69,1.39-.88,1.26-1.4,2.75-1.5,4.29-.15,1.36-.09,2.73,.15,3.9-.3,1.31-.87,1.85-1.49,1.85-.9,0-1.54-1.47-1.47-3.99,.05-1.67,.38-2.84,.74-4.52,.15-.73,.04-1.09-.28-1.45-.29-.34-.91-.51-1.8-.3-.63,.14-1.54,.31-2.36,.43,0,0,.05-.19,.09-.54,.21-1.84-1.79-1.69-2.44-1.11-.38,.35-.63,.76-.74,1.51-.15,1.18,.82,1.73,.82,1.73-.62,2.35-1.67,4.57-3.08,6.55v-.63c0-3.05,.03-5.44,.05-6.3,.02-.85,.05-1.48,.05-1.63,0-.33-.2-.45-.6-.61-.36-.14-.78-.24-1.21-.27-.54-.05-.88,.24-.87,.59v.47c-.39-.62-.98-1.09-1.67-1.35-1.31-.39-2.66-.05-3.69,1.39-.85,1.28-1.37,2.75-1.5,4.28-.14,1.42-.12,2.63,.08,3.66-.21,1.02-.81,2.08-1.48,2.08-.86,0-1.36-.75-1.36-4.23,0-2.03,.06-2.91,.09-4.38,.02-.85,.05-1.5,.05-1.64,0-.45-.79-.68-1.15-.77-.38-.09-.72-.12-.96-.09-.34,.02-.57,.32-.57,.54v.51c-.39-.62-.98-1.09-1.67-1.35-1.31-.39-2.66-.04-3.69,1.39-.68,.93-1.22,1.97-1.5,4.26-.08,.61-.11,1.23-.11,1.85-.27,1.64-1.46,3.53-2.43,3.53-.57,0-1.11-1.1-1.11-3.44,0-3.13,.2-7.58,.23-8l1.47-.03c.62,0,1.17,0,1.98-.04,.41-.02,.8-1.49,.38-1.67-.19-.08-1.54-.15-2.08-.16-.45,0-1.7-.1-1.7-.1,0,0,.12-2.95,.15-3.26,.02-.27-.32-.4-.52-.48-.45-.18-.91-.31-1.39-.4-.69-.14-1,0-1.06,.58-.09,.88-.14,3.46-.14,3.46-.51,0-2.24-.1-2.74-.1-.47,0-.98,2.01-.33,2.04l2.9,.08-.03,5.92v.43c-.48,2.47-2.15,3.81-2.15,3.81,.36-1.63-.38-2.85-1.69-3.9-.49-.38-1.45-1.11-2.53-1.9,0,0,.63-.62,1.18-1.85,.39-.87,.41-1.87-.55-2.08-1.59-.37-2.9,.79-3.29,2.04-.31,.83-.14,1.75,.45,2.41l.14,.17c-.36,.69-.85,1.61-1.27,2.34-1.15,1.99-2.03,3.58-2.69,3.58-.53,0-.52-1.6-.52-3.11,0-1.3,.09-3.24,.17-5.26,.03-.67-.31-1.05-.87-1.4-.45-.31-.95-.52-1.49-.63-.63,0-2.45,.09-4.17,5.05-.21,.63-.63,1.76-.63,1.76l.04-5.95c0-.14-.07-.27-.24-.36-.54-.29-1.14-.45-1.75-.49-.33,0-.49,.15-.49,.45l-.06,9.33c0,.71,.02,1.53,.09,1.89,.07,.36,.18,.65,.33,.82,.14,.18,.3,.31,.56,.36,.25,.05,1.61,.23,1.69-.29,.09-.63,.09-1.3,.81-3.81,1.11-3.91,2.56-5.82,3.24-6.49,.12-.13,.25-.13,.24,.06l-.2,4.82c-.18,4.87,.71,5.76,1.97,5.76,.97,0,2.34-.96,3.81-3.39l2.45-4.08,1.43,1.32c1.16,1.09,1.54,2.14,1.29,3.13-.19,.75-.92,1.54-2.21,.78-.38-.23-.54-.4-.92-.64-.21-.14-.52-.18-.71-.04-.48,.36-.76,.83-.92,1.4-.15,.55,.41,.85,.99,1.11,.5,.23,1.58,.43,2.27,.45,2.66,.09,4.8-1.29,6.29-4.84,.27,3.06,1.4,4.8,3.37,4.8,1.31,0,2.64-1.7,3.22-3.37,.16,.68,.41,1.27,.73,1.78,1.52,2.4,4.47,1.88,5.94-.16,.45-.63,.53-.85,.53-.85,.09,1.42,1.24,2.54,2.66,2.6,1,0,2.02-.47,2.75-2.09,.08,.18,.18,.34,.27,.51,1.52,2.4,4.47,1.88,5.94-.16l.18-.25,.05,1.27-1.36,1.24c-2.28,2.08-4.02,3.67-4.15,5.52-.16,2.36,1.75,3.23,3.2,3.34,1.48,.07,2.88-.66,3.66-1.91,.71-1.04,1.18-3.29,1.14-5.51l-.05-3.23c2.17-2.51,3.84-5.41,4.91-8.55,0,0,.84,0,1.74-.05,.29-.02,.37,.04,.32,.24-.06,.25-1.13,4.39-.15,7.14,.67,1.88,2.18,2.49,3.08,2.49,1.04,0,2.05-.79,2.58-1.97l.21,.38c1.52,2.4,4.46,1.88,5.94-.16,.34-.45,.53-.85,.53-.85,.33,1.99,1.88,2.61,2.76,2.61s1.81-.38,2.52-2.07c.03,.74,.07,1.35,.15,1.54,.05,.12,.31,.27,.51,.34,.84,.31,1.7,.16,2.03,.1,.22-.05,.39-.23,.42-.68,.06-1.21,.03-3.23,.39-4.72,.61-2.53,1.18-3.51,1.45-3.99,.15-.27,.33-.32,.34-.03,0,.58,.04,2.28,.27,4.58,.18,1.69,.42,2.68,.59,2.99,.52,.91,1.15,.95,1.66,.95,.33,0,1.01-.09,.95-.66-.03-.28,.02-2.01,.63-4.5,.39-1.62,1.04-3.08,1.28-3.62,.09-.19,.14-.04,.14,0-.05,1.11-.16,4.76,.29,6.76,.62,2.7,2.4,3.01,3.03,3.01,1.33,0,2.42-1.02,2.78-3.67,.09-.63-.05-1.13-.43-1.13h0Z"/>
</svg>