<?xml version="1.0" encoding="UTF-8"?>
<svg id="Layer_1" data-name="Layer 1" xmlns="http://www.w3.org/2000/svg" viewBox="0 0 40.02 40">
  <defs>
    <style>
      .cls-1 {
        fill: #fff;
      }
    </style>
  </defs>
  <circle class="cls-1" cx="19.96" cy="10.39" r="10.39" transform="translate(-2.46 8.43) rotate(-22.5)"/>
  <path class="cls-1" d="M.01,40c13.33-.02,26.66-.04,39.99-.05,0-2.28,0-4.55,.01-6.83-.08-.68-.31-1.82-1.03-3.03-.56-.95-1.19-1.56-1.55-1.88-.57-.5-1.61-1.27-3.1-1.66-.53-.14-.99-.2-1.33-.22-8.6,.04-17.2,.07-25.81,.11-.33,.03-.79,.09-1.33,.22-.62,.15-1.62,.4-2.66,1.11-.94,.64-1.47,1.36-1.77,1.77-.9,1.23-1.27,2.48-1.44,3.32,0,2.38,0,4.76,.01,7.14Z"/>
</svg>