<?xml version="1.0" encoding="UTF-8"?>
<svg id="Layer_2" data-name="Layer 2" xmlns="http://www.w3.org/2000/svg" viewBox="0 0 16.02 17.16">
  <defs>
    <style>
      .cls-1 {
        fill: #fff;
      }
    </style>
  </defs>
  <g id="Layer_1-2" data-name="Layer 1">
    <path class="cls-1" d="M15.87,10.5c-.1-1.84-.18-3.24-.21-4.07-.01-.4-.04-1.45-.86-2.12-.4-.33-.93-.5-1.51-.5h-1.59c.01-1.98-1.46-3.65-3.38-3.8-.99-.07-1.99,.28-2.75,.99-.78,.72-1.22,1.75-1.22,2.81h-1.85l-.29,.04c-.4,.12-.77,.34-1.07,.63-.8,.77-.83,1.79-.8,2.19l-.34,6.67,.03,.14c.22,.95,.73,1.83,1.44,2.48,.8,.74,1.68,1.05,2.27,1.18l.11,.02,8.4-.04,.22-.03c.57-.13,1.65-.5,2.52-1.53,.66-.79,.92-1.62,1.01-2.19l.02-.11-.15-2.77ZM6.93,2.46c.35-.32,.79-.49,1.23-.46,.86,.07,1.55,.88,1.54,1.8h-3.35c0-.51,.2-.99,.58-1.34Zm1.07,7.67c-1.85,0-3.36-1.51-3.36-3.37,0-.35,.28-.62,.62-.62s.62,.28,.62,.62c0,1.17,.95,2.12,2.11,2.12s2.11-.95,2.11-2.12c0-.35,.28-.62,.62-.62s.62,.28,.62,.62c0,1.86-1.51,3.37-3.36,3.37Z"/>
  </g>
</svg>