<?xml version="1.0" encoding="UTF-8"?>
<svg id="Layer_1" data-name="Layer 1" xmlns="http://www.w3.org/2000/svg" viewBox="0 0 39.99 37.56">
  <defs>
    <style>
      .cls-1 {
        fill: #231f20;
      }
    </style>
  </defs>
  <path class="cls-1" d="M20.03,10.6c-5.56,0-10.07,4.5-10.07,10.05s4.51,10.05,10.07,10.05,10.07-4.5,10.07-10.05-4.51-10.05-10.07-10.05Zm-.05,16.3c-3.53,0-6.39-2.86-6.39-6.39s2.86-6.39,6.39-6.39,6.39,2.86,6.39,6.39-2.86,6.39-6.39,6.39Z"/>
  <path class="cls-1" d="M36.67,6.17c-1.29-.93-2.61-1.24-3.42-1.36-.7,.02-1.39,.03-2.09,.05-.19,.03-.55,.06-.93-.1-.28-.12-.47-.3-.58-.43-.6-.66-.74-1.44-1.23-2.34,0,0-.85-1.54-1.95-1.88-.19-.06-.38-.08-.38-.08-.1,0-.19,0-.24,0-3.94-.01-7.88-.02-11.81-.03-.06,0-.16,0-.28,.05,0,0-.15,.05-.29,.15-.99,.73-1.64,1.75-1.64,1.75-.65,1.02-.97,1.53-1.12,2.03-.03,.11-.11,.37-.34,.57-.27,.23-.62,.26-.87,.25-1.04,0-2.07,.01-3.11,.02-.23-.01-.56,0-.95,.11-.26,.08-.48,.19-.63,.29-.58,.34-1.21,.8-1.83,1.41C.94,8.61,.29,10.99,.05,12.21c-.02,6.25-.03,12.51-.05,18.76,.27,.91,.95,2.77,2.67,4.43,1.27,1.22,2.59,1.85,3.42,2.16,9.29-.02,18.58-.03,27.87-.05,.65-.16,2.73-.75,4.33-2.77,1.5-1.89,1.68-3.89,1.71-4.58V12.16c-.06-.61-.46-3.94-3.32-5.99Zm-1.48,26.69c-.72,.85-1.53,1.26-1.95,1.44-8.8,.02-17.6,.03-26.4,.05-.44-.14-1.18-.44-1.9-1.09-.78-.69-1.18-1.45-1.37-1.88,.05-6.77,.1-13.53,.15-20.3,.2-.44,.61-1.17,1.37-1.83,.62-.54,1.24-.83,1.66-.99,1.42-.02,2.83-.03,4.25-.05,.61-.37,1.54-1.03,2.39-2.13,.79-1.02,1.2-2.01,1.42-2.67,3.19-.02,6.38-.03,9.57-.05,.41,.82,1.05,1.89,2.05,2.97,.77,.84,1.55,1.45,2.2,1.88h4.05c.45,.09,1.3,.32,2.15,.99,.71,.56,1.11,1.19,1.32,1.58,.05,6.67,.1,13.33,.15,20-.12,.45-.39,1.27-1.07,2.08Z"/>
</svg>