<?xml version="1.0" encoding="UTF-8"?>
<svg id="Layer_1" data-name="Layer 1" xmlns="http://www.w3.org/2000/svg" viewBox="0 0 22 22">
  <defs>
    <style>
      .cls-1 {
        stroke-linecap: round;
      }

      .cls-1, .cls-2 {
        fill: none;
        stroke: #000;
        stroke-linejoin: round;
        stroke-width: 2px;
      }

      .cls-3 {
        fill-rule: evenodd;
      }
    </style>
  </defs>
  <path class="cls-2" d="M1.05,6H20.95"/>
  <path class="cls-1" d="M12.5,1l2.86,5M6.21,1.11l2.8,4.89M1,11v3.45c0,2.85,.7,4.01,1.61,4.94,.94,.91,2.1,1.61,4.95,1.61h6.9c2.85,0,4.01-.7,4.95-1.61,.91-.94,1.61-2.1,1.61-4.94V7.55c0-2.85-.7-4.01-1.61-4.95-.94-.91-2.1-1.61-4.95-1.61H7.55c-2.85,0-4.01,.7-4.95,1.61-.91,.94-1.61,2.1-1.61,4.95v3.45Z"/>
  <path class="cls-3" d="M8.76,16.66c-.28-.16-.45-.46-.45-.79v-5.25c0-.5,.41-.91,.91-.91,.16,0,.32,.04,.46,.12l4.55,2.62c.43,.25,.58,.81,.33,1.24-.08,.14-.19,.25-.33,.33l-4.55,2.62c-.28,.16-.63,.16-.91,0h0Z"/>
</svg>