<?xml version="1.0" encoding="UTF-8"?>
<svg id="Layer_1" data-name="Layer 1" xmlns="http://www.w3.org/2000/svg" viewBox="0 0 22 22">
  <defs>
    <style>
      .cls-1 {
        fill: none;
        stroke: #fff;
        stroke-linecap: round;
        stroke-linejoin: round;
        stroke-width: 2px;
      }
    </style>
  </defs>
  <path class="cls-1" d="M10.95,2.45H4c-1.66,0-3,1.34-3,3v12.55c0,1.66,1.34,3,3,3h12.55c1.66,0,3-1.34,3-3v-6.95"/>
  <path class="cls-1" d="M8.75,16.48h-3.23v-3.23L17.36,1.42c.55-.55,1.45-.55,2,0,0,0,0,0,0,0l1.22,1.22c.55,.55,.55,1.45,0,2,0,0,0,0,0,0l-11.83,11.83ZM15.6,3.17l3.23,3.23"/>
</svg>