<?xml version="1.0" encoding="UTF-8"?>
<svg id="Layer_1" data-name="Layer 1" xmlns="http://www.w3.org/2000/svg" viewBox="0 0 20.18 20.18">
  <defs>
    <style>
      .cls-1 {
        fill: #fff;
      }
    </style>
  </defs>
  <path class="cls-1" d="M19.91,6.03L14.14,.27c-.36-.36-.94-.36-1.3,0-.88,.87-1.39,2.05-1.41,3.29l-4.85,3.58c-1.58-.34-3.23,.15-4.37,1.3-.36,.36-.36,.94,0,1.3l3.46,3.46L.28,18.6c-.36,.35-.37,.93-.02,1.3,.35,.36,.93,.37,1.3,.02,0,0,.02-.01,.02-.02l5.4-5.4,3.46,3.46c.36,.36,.94,.36,1.3,0,1.15-1.14,1.64-2.79,1.3-4.37l3.58-4.85c1.24-.02,2.42-.53,3.29-1.41,.36-.36,.36-.94,0-1.3h0Z"/>
</svg>