<?xml version="1.0" encoding="UTF-8"?>
<svg id="Layer_1" data-name="Layer 1" xmlns="http://www.w3.org/2000/svg" viewBox="0 0 24 20.85">
  <defs>
    <style>
      .cls-1 {
        fill: #fff;
      }
    </style>
  </defs>
  <path class="cls-1" d="M17.3,0c-2.25,0-3.95,.9-5.3,2.8C10.65,.95,8.95,.05,6.7,.05,3,0,0,3.25,0,7.25c0,3.65,2.7,6,5.3,8.25,.3,.25,.65,.55,.95,.85l1.15,1c2.2,1.95,3.3,2.95,3.8,3.25,.25,.15,.55,.25,.8,.25s.55-.1,.8-.25c.5-.3,1.4-1.1,3.9-3.4l1-.9c.35-.3,.65-.6,1-.85,2.65-2.2,5.3-4.5,5.3-8.2C24,3.25,21,0,17.3,0Z"/>
</svg>