<?xml version="1.0" encoding="UTF-8"?>
<svg id="Layer_1" data-name="Layer 1" xmlns="http://www.w3.org/2000/svg" viewBox="0 0 11 11">
  <defs>
    <style>
      .cls-1 {
        fill: #fff;
      }
    </style>
  </defs>
  <path class="cls-1" d="M7.82,3.01c-.25-.33-.72-.4-1.05-.15-.33,.25-.4,.72-.15,1.05h0c.35,.46,.54,1.01,.55,1.59,0,.57-.2,1.13-.55,1.59-.25,.33-.2,.8,.13,1.05,.33,.25,.8,.2,1.05-.13,0,0,0-.01,.01-.02,.54-.72,.84-1.59,.85-2.49-.01-.9-.31-1.77-.85-2.49Zm1.86-1.17c-.26-.33-.73-.38-1.05-.13-.33,.26-.38,.73-.13,1.05,0,0,.01,.01,.02,.02,.62,.77,.97,1.72,.98,2.71-.01,.99-.36,1.94-.98,2.71-.26,.33-.2,.8,.13,1.05,.32,.25,.78,.2,1.04-.11,.84-1.03,1.31-2.32,1.32-3.65,0-1.33-.47-2.62-1.32-3.66ZM5.2,.04c-.18-.08-.4-.04-.54,.09L2.13,2.5H.5c-.28,0-.5,.22-.5,.5v5c0,.28,.22,.5,.5,.5h1.63l2.51,2.34h.01c.19,.21,.51,.21,.71,.01,.11-.11,.16-.26,.14-.41V.5c0-.2-.12-.38-.3-.46Z"/>
</svg>