<?xml version="1.0" encoding="utf-8"?>
<!-- Generator: Adobe Illustrator 26.5.0, SVG Export Plug-In . SVG Version: 6.00 Build 0)  -->
<svg version="1.1" id="Layer_1" xmlns="http://www.w3.org/2000/svg" xmlns:xlink="http://www.w3.org/1999/xlink" x="0px" y="0px"
	 viewBox="0 0 24 20.9" style="enable-background:new 0 0 24 20.9;" xml:space="preserve">
<style type="text/css">
	.st0{fill:#FF3040;}
</style>
<path class="st0" d="M17.3,0C15,0,13.3,0.9,12,2.8C10.6,1,8.9,0,6.7,0C3,0,0,3.3,0,7.2c0,3.7,2.7,6,5.3,8.2C5.6,15.7,6,16,6.2,16.4
	l1.2,1c2.2,2,3.3,3,3.8,3.2c0.2,0.1,0.6,0.2,0.8,0.2s0.6-0.1,0.8-0.2c0.5-0.3,1.4-1.1,3.9-3.4l1-0.9c0.4-0.3,0.6-0.6,1-0.9
	c2.6-2.2,5.3-4.5,5.3-8.2C24,3.3,21,0,17.3,0z"/>
</svg>
