<?xml version="1.0" encoding="utf-8"?>
<!-- Generator: Adobe Illustrator 26.5.0, SVG Export Plug-In . SVG Version: 6.00 Build 0)  -->
<svg version="1.1" id="Layer_1" xmlns="http://www.w3.org/2000/svg" xmlns:xlink="http://www.w3.org/1999/xlink" x="0px" y="0px"
	 viewBox="0 0 22 22" style="enable-background:new 0 0 22 22;" xml:space="preserve">
<style type="text/css">
	.st0{fill:#FFFFFF;}
</style>
<g>
	<path class="st0" d="M20,21H2c-0.6,0-1-0.4-1-1V2c0-0.6,0.4-1,1-1h18c0.6,0,1,0.4,1,1v18C21,20.6,20.6,21,20,21z M15,19h4v-4h-4V19
		z M9,19h4v-4H9V19z M3,19h4v-4H3V19z M15,13h4V9h-4V13z M9,13h4V9H9V13z M3,13h4V9H3V13z M15,7h4V3h-4V7z M9,7h4V3H9V7z M3,7h4V3H3
		V7z"/>
</g>
</svg>
